<svg width="16" height="16" viewBox="0 0 16 16" fill="none" xmlns="http://www.w3.org/2000/svg">
<path d="M14.6667 8.83333V2.99999C14.6667 2.07952 13.9205 1.33333 13 1.33333H3.00004C2.07957 1.33333 1.33337 2.07952 1.33337 2.99999V8.83333M14.6667 8.83333V13C14.6667 13.9205 13.9205 14.6667 13 14.6667H3.00004C2.07957 14.6667 1.33337 13.9205 1.33337 13V8.83333M14.6667 8.83333H12.5119C12.2909 8.83333 12.0789 8.92113 11.9226 9.07741L9.91078 11.0893C9.7545 11.2455 9.54254 11.3333 9.32153 11.3333H6.67855C6.45754 11.3333 6.24558 11.2455 6.0893 11.0893L4.07745 9.07741C3.92117 8.92113 3.70921 8.83333 3.4882 8.83333H1.33337" stroke="#64748B" stroke-width="1.5" stroke-linecap="round" stroke-linejoin="round"/>
</svg>
