<svg width="16" height="16" viewBox="0 0 16 16" fill="none" xmlns="http://www.w3.org/2000/svg">
<path d="M12.1667 9.66667V14.6667M9.66671 12.1667H14.6667M3.00004 6.33334H4.66671C5.58718 6.33334 6.33337 5.58714 6.33337 4.66667V3C6.33337 2.07953 5.58718 1.33334 4.66671 1.33334H3.00004C2.07957 1.33334 1.33337 2.07953 1.33337 3V4.66667C1.33337 5.58714 2.07957 6.33334 3.00004 6.33334ZM11.3334 6.33334H13C13.9205 6.33334 14.6667 5.58714 14.6667 4.66667V3C14.6667 2.07953 13.9205 1.33334 13 1.33334H11.3334C10.4129 1.33334 9.66671 2.07953 9.66671 3V4.66667C9.66671 5.58714 10.4129 6.33334 11.3334 6.33334ZM3.00004 14.6667H4.66671C5.58718 14.6667 6.33337 13.9205 6.33337 13V11.3333C6.33337 10.4129 5.58718 9.66667 4.66671 9.66667H3.00004C2.07957 9.66667 1.33337 10.4129 1.33337 11.3333V13C1.33337 13.9205 2.07957 14.6667 3.00004 14.6667Z" stroke="#475569" stroke-width="1.5" stroke-linecap="round" stroke-linejoin="round"/>
</svg>
